<?xml version="1.0" encoding="utf-8"?>
<!-- Generator: Adobe Illustrator 17.0.0, SVG Export Plug-In . SVG Version: 6.00 Build 0)  -->
<!DOCTYPE svg PUBLIC "-//W3C//DTD SVG 1.1//EN" "http://www.w3.org/Graphics/SVG/1.1/DTD/svg11.dtd">
<svg version="1.1" id="Capa_1" xmlns="http://www.w3.org/2000/svg" xmlns:xlink="http://www.w3.org/1999/xlink" x="0px" y="0px"
	 width="255.118px" height="85.039px" viewBox="0 0 255.118 85.039" enable-background="new 0 0 255.118 85.039"
	 xml:space="preserve">
<g>
	<g>
		<path fill="#FFFFFF" d="M66.203,35.565v10.601h11.068v1.093H66.203v11.87h-1.154V34.455h13.139v1.11
			C78.188,35.565,66.203,35.565,66.203,35.565z"/>
		<path fill="#FFFFFF" d="M100.512,40.095v19.034h-0.987L99.4,54.16c-1.526,3.22-4.699,5.339-8.687,5.339
			c-5.534,0-9.711-4.265-9.711-9.887c0-5.631,4.177-9.887,9.711-9.887c3.992,0,7.167,2.119,8.691,5.345l0.147-4.975H100.512z
			 M99.366,49.612c0-5.076-3.622-8.786-8.591-8.786c-4.917,0-8.627,3.798-8.627,8.786c0,5.014,3.71,8.786,8.627,8.786
			C95.745,58.398,99.366,54.688,99.366,49.612z"/>
		<path fill="#FFFFFF" d="M105.645,53.947h1.11c0.299,2.847,2.573,4.485,6.168,4.485c3.63,0,6.036-1.709,6.036-4.344
			c0-3.295-3.102-3.877-6.239-4.406c-3.296-0.564-6.697-1.154-6.697-4.891c0-3.022,2.731-5.067,6.75-5.067
			c4.044,0,6.618,2.036,6.803,5.322h-1.084c-0.185-2.688-2.291-4.283-5.736-4.283c-3.393,0-5.631,1.604-5.631,4.001
			c0,2.855,2.749,3.313,5.851,3.833c3.331,0.555,7.103,1.234,7.103,5.455c0,3.278-2.873,5.446-7.182,5.446
			C108.614,59.499,105.944,57.401,105.645,53.947z"/>
		<path fill="#FFFFFF" d="M134.632,58.062v1.075h-2.494c-3.542,0-5.702-2.186-5.702-5.79V41.126h-4.388V40.13h4.388v-5.631h1.128
			v5.631h6.909v0.996h-6.909v12.178c0,3.005,1.701,4.758,4.67,4.758H134.632z"/>
	</g>
	<g>
		<path fill="#FFFFFF" d="M153.067,46.101c2.325,1.102,3.784,3.31,3.784,6.002c0,3.998-3.45,7.026-8.004,7.026h-11.372V34.455
			h11.145c4.375,0,7.567,2.669,7.567,6.315C156.186,42.975,154.951,44.958,153.067,46.101L153.067,46.101z M149.734,41.896
			c0-1.281-0.877-2.148-2.298-2.148h-3.435v4.296h3.436C148.858,44.044,149.735,43.176,149.734,41.896L149.734,41.896z
			 M150.128,51.294c0-1.311-0.962-2.233-2.434-2.233h-3.692v4.487h3.692C149.166,53.548,150.128,52.625,150.128,51.294z"/>
		<path fill="#FFFFFF" d="M158.983,49.611c0-5.9,4.466-10.14,10.672-10.14c6.186,0,10.671,4.24,10.671,10.14
			c0,5.88-4.486,10.141-10.671,10.141C163.449,59.752,158.983,55.492,158.983,49.611z M169.655,53.863
			c2.391,0,4.105-1.735,4.105-4.251c0-2.501-1.714-4.251-4.105-4.251s-4.105,1.735-4.105,4.251S167.264,53.863,169.655,53.863
			L169.655,53.863z"/>
		<path fill="#FFFFFF" d="M182.242,49.611c0-5.9,4.466-10.14,10.672-10.14c6.186,0,10.671,4.24,10.671,10.14
			c0,5.88-4.486,10.141-10.671,10.141C186.708,59.752,182.242,55.492,182.242,49.611z M192.914,53.863
			c2.391,0,4.105-1.735,4.105-4.251c0-2.501-1.714-4.251-4.105-4.251s-4.105,1.735-4.105,4.251S190.523,53.863,192.914,53.863
			L192.914,53.863z"/>
		<path fill="#FFFFFF" d="M218.216,59.128l-4.768-8.049v8.049h-6.556V33.221h6.556v14.33l4.535-7.457h7.361l-5.932,9.072
			l6.532,9.962H218.216z"/>
		<path fill="#FFFFFF" d="M234.567,59.752c-5.188,0-8.341-2.74-8.4-6.864h6.311c0,1.392,0.969,2.033,2.212,2.033
			c0.959,0,1.868-0.489,1.868-1.473c0-1.098-1.441-1.411-3.27-1.713c-2.951-0.478-6.864-1.369-6.864-5.985
			c0-3.815,3.251-6.278,8.128-6.278c4.847,0,7.988,2.579,8.063,6.435h-6.14c0-1.215-0.817-1.78-2.005-1.78
			c-1.051,0-1.757,0.521-1.757,1.402c0,1.083,1.456,1.335,3.264,1.658c3.007,0.534,7.005,1.159,7.005,5.986
			C242.983,57.149,239.625,59.752,234.567,59.752L234.567,59.752z"/>
	</g>
	<polygon fill="#FFFFFF" points="14.902,49.404 33.689,68.84 52.286,50.693 32.869,31.296 	"/>
	<path fill="#FFFFFF" d="M61.64,58.837c-0.302-0.302-0.799-0.302-1.102,0l-18.659,18.66c-0.789,0.79-1.832,1.18-2.875,1.18
		c-1.034,0-2.067-0.381-2.847-1.151c-0.01-0.009-0.02-0.019-0.029-0.029l-1.819-1.819c-0.015-0.017-0.027-0.036-0.043-0.053
		l-0.069-0.068c-0.74-0.779-1.11-1.791-1.111-2.804c0-0.001,0-0.002,0-0.003h0.02c0-1.044,0.389-2.077,1.179-2.867l18.659-18.659
		c0.302-0.302,0.302-0.799,0-1.101L33.408,30.586c-0.302-0.303-0.8-0.303-1.102,0L13.881,49.01c-0.019,0.01-0.029,0.03-0.039,0.039
		c-1.14,1.151-1.706,2.662-1.706,4.173c0,1.531,0.575,3.051,1.735,4.211l19.293,19.293l1.862,1.862
		c0.01,0.02,0.029,0.029,0.039,0.039c1.092,1.072,2.515,1.608,3.939,1.608c1.442,0,2.885-0.545,3.977-1.637L61.64,59.939
		C61.942,59.636,61.942,59.139,61.64,58.837"/>
	
		<rect x="20.376" y="37.85" transform="matrix(0.7071 0.7071 -0.7071 0.7071 45.2076 -8.9476)" fill="#FFFFFF" width="26.057" height="24.493"/>
	<path fill="#343E39" d="M14.973,56.322c-0.848-0.858-1.277-1.979-1.277-3.11c0-0.888,0.264-1.769,0.785-2.519l18.388,18.388
		c-0.9,1.048-1.352,2.357-1.352,3.668c0,0.04,0.002,0.079,0.002,0.119L14.973,56.322z"/>
	<path fill="#FFFFFF" d="M40.855,74.621c0.302,0.302,0.799,0.302,1.102,0L56.658,59.92c0.302-0.302,0.302-0.799,0-1.102
		c-0.303-0.302-0.8-0.302-1.102,0L40.855,73.519C40.553,73.822,40.553,74.319,40.855,74.621"/>
	<path fill="#FFFFFF" d="M38.993,72.769c0.302,0.302,0.799,0.302,1.102,0l14.701-14.701c0.302-0.302,0.302-0.799,0-1.102
		c-0.303-0.302-0.8-0.302-1.102,0L38.993,71.667C38.691,71.969,38.691,72.467,38.993,72.769"/>
	<path fill="#FFFFFF" d="M52.934,55.103c-0.302-0.302-0.799-0.302-1.102,0L37.131,69.805c-0.302,0.302-0.302,0.799,0,1.102
		c0.303,0.302,0.8,0.302,1.102,0l14.701-14.701C53.236,55.904,53.236,55.405,52.934,55.103"/>
	<path fill="#585757" d="M26.018,53.339l4.26,4.26c0.517,0.517,1.19,0.77,1.862,0.77c0.673,0,1.345-0.253,1.862-0.77l6.785-6.785
		c0.517-0.507,0.77-1.189,0.77-1.862s-0.253-1.345-0.77-1.862l-4.26-4.26c-0.517-0.517-1.189-0.77-1.862-0.77
		s-1.345,0.253-1.862,0.77l-6.785,6.785c-0.517,0.516-0.77,1.189-0.77,1.862C25.248,52.15,25.501,52.822,26.018,53.339"/>
	<path fill="#585757" d="M27.11,50.717l6.785-6.785c0.215-0.205,0.488-0.312,0.76-0.312c0.283,0,0.556,0.107,0.761,0.312l4.26,4.26
		c0.205,0.214,0.312,0.487,0.312,0.76s-0.097,0.546-0.312,0.761l-6.785,6.785c-0.215,0.205-0.487,0.312-0.76,0.312
		c-0.283,0-0.556-0.107-0.761-0.312l-4.26-4.26c-0.205-0.215-0.312-0.488-0.312-0.761C26.798,51.195,26.905,50.922,27.11,50.717"/>
	<path fill="#585757" d="M32.14,58.509c-0.741,0-1.438-0.288-1.961-0.811l-4.26-4.26c-0.523-0.523-0.811-1.22-0.811-1.961
		c0-0.741,0.288-1.438,0.811-1.961l6.785-6.785c0.523-0.523,1.219-0.811,1.961-0.811c0.741,0,1.438,0.288,1.961,0.811l4.26,4.26
		c0.523,0.523,0.811,1.22,0.811,1.961s-0.296,1.455-0.812,1.962l-6.784,6.784C33.578,58.221,32.882,58.509,32.14,58.509"/>
	<path fill="#585757" d="M26.117,53.24l4.26,4.26c0.47,0.47,1.097,0.73,1.763,0.73c0.667,0,1.293-0.26,1.763-0.73l6.786-6.785
		c0.463-0.455,0.729-1.097,0.729-1.763c0-0.667-0.259-1.293-0.729-1.763l-4.261-4.26c-0.47-0.471-1.096-0.73-1.763-0.73
		c-0.666,0-1.293,0.259-1.763,0.73l-6.785,6.785c-0.47,0.47-0.729,1.096-0.729,1.763S25.647,52.77,26.117,53.24"/>
	<path fill="#585757" d="M32.13,56.95c-0.326,0-0.632-0.125-0.859-0.353l-4.26-4.26c-0.229-0.239-0.353-0.544-0.353-0.86
		c0-0.326,0.125-0.631,0.353-0.859l6.785-6.785c0.239-0.228,0.543-0.353,0.859-0.353c0.327,0,0.632,0.126,0.859,0.353l4.26,4.26
		c0.229,0.239,0.353,0.544,0.353,0.859c0,0.327-0.125,0.632-0.353,0.86l-6.785,6.785C32.75,56.825,32.446,56.95,32.13,56.95"/>
	<path fill="#FFFFFF" d="M34.655,43.76c-0.243,0-0.479,0.097-0.664,0.273l-6.783,6.783c-0.174,0.174-0.271,0.41-0.271,0.661
		c0,0.244,0.097,0.48,0.274,0.664l4.257,4.258c0.344,0.344,0.95,0.357,1.326-0.002l6.783-6.783c0.224-0.224,0.271-0.483,0.271-0.662
		c0-0.243-0.097-0.479-0.274-0.663l-4.258-4.258C35.142,43.856,34.907,43.76,34.655,43.76"/>
	<path fill="#FFFFFF" d="M57.648,56.874V31.209c0-0.986-1.528-0.986-1.528,0v25.666C56.121,57.861,57.648,57.861,57.648,56.874"/>
	<path fill="#FFFFFF" d="M61.999,58.811V35.079c0-0.948-1.469-0.948-1.469,0v23.732C60.53,59.757,61.999,59.757,61.999,58.811"/>
	<path fill="#FFFFFF" d="M34.117,33.959V8.292c0-0.985-1.528-0.985-1.528,0v25.667C32.59,34.946,34.117,34.946,34.117,33.959"/>
	<path fill="#FFFFFF" d="M38.468,35.895V12.164c0-0.947-1.469-0.947-1.469,0v23.732C36.999,36.842,38.468,36.842,38.468,35.895"/>
	<path fill="#FFFFFF" d="M42.775,31.209V5.542c0-0.985-1.527-0.985-1.527,0v25.667C41.247,32.195,42.775,32.195,42.775,31.209"/>
	<path fill="#FFFFFF" d="M56.884,46.776c-0.196,0-0.392-0.074-0.542-0.224L41.468,31.755c-0.301-0.3-0.302-0.787-0.002-1.088
		c0.299-0.301,0.786-0.303,1.087-0.003l14.873,14.798c0.302,0.299,0.303,0.786,0.003,1.087C57.279,46.7,57.081,46.776,56.884,46.776
		"/>
</g>
<path fill="none" d="M147.787,1118.939"/>
<path fill="none" d="M147.787-419.46"/>
<path fill="none" d="M147.787,1118.939"/>
<path fill="none" d="M147.787-419.46"/>
</svg>
